<svg width="28" height="28" viewBox="0 0 28 28" fill="none" xmlns="http://www.w3.org/2000/svg">
<g id="star 1" clip-path="url(#clip0_5555_38246)">
<path id="star" d="M7.81803 24.6169C7.58491 24.6157 7.3546 24.5659 7.14172 24.4709C6.92883 24.3759 6.73801 24.2377 6.58136 24.0651C6.42602 23.8965 6.30793 23.697 6.23476 23.4797C6.1616 23.2624 6.135 23.0322 6.15669 22.8039L6.17536 22.6651L7.20553 16.6778L2.84103 12.4276C2.62684 12.2194 2.47253 11.9575 2.39423 11.6692C2.31593 11.3809 2.31652 11.0769 2.39593 10.789C2.47534 10.501 2.63067 10.2397 2.84565 10.0323C3.06064 9.82491 3.32739 9.6791 3.61803 9.6101L3.76153 9.58327L9.80136 8.71177L12.5069 3.25994C12.6449 2.98186 12.8578 2.74785 13.1216 2.58426C13.3855 2.42066 13.6898 2.33398 14.0002 2.33398C14.3106 2.33398 14.6149 2.42066 14.8788 2.58426C15.1426 2.74785 15.3555 2.98186 15.4935 3.25994L18.1944 8.71177L24.2365 9.58443C24.5324 9.62705 24.8114 9.74848 25.0442 9.93601C25.277 10.1235 25.455 10.3702 25.5597 10.6503C25.6643 10.9303 25.6917 11.2333 25.6389 11.5275C25.5861 11.8218 25.4551 12.0964 25.2597 12.3226L25.1594 12.4288L20.7902 16.6719L21.8215 22.6593C21.8649 22.897 21.8549 23.1414 21.7923 23.3748C21.7298 23.6082 21.6162 23.8249 21.4599 24.0091C21.303 24.1972 21.1068 24.3486 20.8851 24.4526C20.6633 24.5566 20.4215 24.6107 20.1765 24.6111C19.9542 24.6106 19.7343 24.565 19.5302 24.4769L19.403 24.4174L14.0014 21.5836L8.59386 24.4186C8.35539 24.5472 8.08898 24.6154 7.81803 24.6169Z" fill="#00B852"/>
</g>
<defs>
<clipPath id="clip0_5555_38246">
<rect width="28" height="28" fill="white"/>
</clipPath>
</defs>
</svg>
